:SAMPLES-PER-SECOND 30
:FULLY-SPECIFIED
:DEGREES
349
root  34.9315 33.3682 37.4155 -79.3783 -85.0862 83.4411
RightUpLeg  -14.1276 10.0031 -0.614911
RightLeg  34.0889 -0.640227 -0.389186
RightFoot  -11.3976 -0.0195904 0.181248
RightToes  -15.4271 -0.0574601 -0.139077
Spine  4.90277 -0.966415 0.227937
Spine1  9.51393 -1.79364 0.13073
HEad  0.571308 -35.9853 23.1743
LeftShoulder1  0 -2.42657e-020 -4.95415e-022
LeftArm  -15.3221 13.6881 -81.2414
LeftForeArm  50.9046 -49.843 -12.0569
LeftHand  0.396268 -11.6593 -4.25221
RightShoulder  0 2.42657e-020 1.07489e-018
RightArm  -26.4881 -13.9772 80.5253
RightForeArm  45.2472 36.1041 7.372
RightHand  -1.89176 20.9164 -9.85541
LeftUpLeg  -20.4557 -8.35956 11.0569
LeftLeg  17.9429 -19.5683 -4.86787
LeftFoot  9.43501 0.288094 -3.49003
LeftToes  -33.1916 3.33339e-006 -4.73431e-007
350
root  34.4206 33.3021 38.5231 -136.87 -83.0848 141.024
RightUpLeg  -15.1581 13.7639 -1.86689
RightLeg  36.0731 -0.84361 -0.551324
RightFoot  -10.826 -0.0141801 0.227916
RightToes  -20.8483 -0.0862382 -0.183608
Spine  4.78671 -0.914576 0.33032
Spine1  9.30416 -1.64008 0.198338
HEad  3.52918 -31.155 19.4744
LeftShoulder1  0 -2.42657e-020 -4.95415e-022
LeftArm  -17.506 17.0676 -81.5977
LeftForeArm  51.112 -52.0536 -13.0709
LeftHand  0.51049 -12.1426 -5.16961
RightShoulder  0 2.42657e-020 1.07489e-018
RightArm  -23.3789 -13.4318 80.8495
RightForeArm  44.2449 39.3528 8.30286
RightHand  -1.71595 21.0294 -8.85851
LeftUpLeg  -18.7671 -8.78029 10.9681
LeftLeg  18.6037 -21.6389 -5.61442
LeftFoot  12.0383 0.521137 -4.93936
LeftToes  -37.2785 3.33339e-006 -4.73431e-007
351
root  33.8697 33.0214 39.6025 -158.989 -77.2454 161.941
RightUpLeg  -16.5563 15.6369 -2.85418
RightLeg  40.5739 -1.03161 -0.797754
RightFoot  -10.6976 -0.00800934 0.292022
RightToes  -26.8973 -0.12315 -0.229834
Spine  5.20433 -0.949707 0.365306
Spine1  10.1236 -1.65002 0.0949211
HEad  5.91202 -25.2438 16.063
LeftShoulder1  0 -2.42657e-020 -4.95415e-022
LeftArm  -19.9428 19.5302 -82.1375
LeftForeArm  51.7329 -53.0863 -13.5803
LeftHand  0.47299 -12.1581 -4.8117
RightShoulder  0 2.42657e-020 1.07489e-018
RightArm  -20.6957 -11.8362 81.169
RightForeArm  43.6335 41.8477 9.08037
RightHand  -1.57984 21.3052 -8.01705
LeftUpLeg  -15.9241 -5.12738 9.30555
LeftLeg  21.6113 -18.0318 -5.7219
LeftFoot  6.11376 0.112742 -2.11091
LeftToes  -39.176 3.33339e-006 -4.73431e-007
352
root  33.5416 32.6426 40.714 -164.041 -71.5299 166.3
RightUpLeg  -20.0915 15.3428 -4.646
RightLeg  46.7784 -1.66956 -1.59842
RightFoot  -10.2344 0.00935028 0.481996
RightToes  -32.0784 -0.158492 -0.266149
Spine  5.65092 -1.37069 0.126934
Spine1  10.9489 -2.39276 -0.605993
HEad  6.60117 -18.9709 14.0499
LeftShoulder1  0 -2.42657e-020 -4.95415e-022
LeftArm  -21.3557 20.5081 -81.9389
LeftForeArm  51.5122 -52.2615 -13.1708
LeftHand  0.407263 -12.0444 -4.23139
RightShoulder  0 2.42657e-020 1.07489e-018
RightArm  -18.4023 -9.59386 81.9344
RightForeArm  42.882 43.4457 9.61264
RightHand  -1.67491 21.1698 -8.5778
LeftUpLeg  -14.9476 -2.6147 6.95143
LeftLeg  24.7126 -13.9702 -5.30588
LeftFoot  1.13547 0.00319701 -0.32264
LeftToes  -39.3698 3.33339e-006 -4.73431e-007
353
root  33.3394 32.2891 41.6845 -166.832 -66.9555 168.563
RightUpLeg  -23.5143 14.4192 -5.26336
RightLeg  52.4026 -3.92222 -4.50739
RightFoot  -9.47565 0.0579703 1.07707
RightToes  -32.7221 -0.163108 -0.270433
Spine  6.11564 -1.84414 -0.133786
Spine1  11.8141 -3.2535 -1.32306
HEad  6.83931 -13.347 12.8007
LeftShoulder1  0 -2.42657e-020 -4.95415e-022
LeftArm  -19.456 19.058 -80.1609
LeftForeArm  50.5354 -49.0034 -11.6975
LeftHand  0.371221 -11.3536 -4.10559
RightShoulder  0 2.42657e-020 1.07489e-018
RightArm  -17.436 -7.43836 83.3007
RightForeArm  42.7436 43.8234 9.74265
RightHand  -1.87168 21.2328 -9.59394
LeftUpLeg  -16.5824 -1.35124 5.3288
LeftLeg  30.9042 -10.7828 -5.50107
LeftFoot  -2.8079 0.0143849 0.586922
LeftToes  -37.8471 3.33339e-006 -4.73431e-007
354
root  33.1717 32.1226 42.5528 -168.408 -62.2345 169.781
RightUpLeg  -26.2909 12.8281 -5.36591
RightLeg  56.1296 -6.55307 -8.50576
RightFoot  -9.19397 0.117037 1.8332
RightToes  -25.8357 -0.116321 -0.222007
Spine  6.32701 -1.77555 -0.650861
Spine1  12.1813 -3.05902 -2.35828
HEad  8.0713 -9.77016 12.1354
LeftShoulder1  0 -2.42657e-020 -4.95415e-022
LeftArm  -15.7834 15.785 -77.3557
LeftForeArm  53.607 -43.9032 -9.74448
LeftHand  0.720673 -12.6494 -6.86885
RightShoulder  0 2.42657e-020 1.07489e-018
RightArm  -18.7121 -6.91155 85.2815
RightForeArm  44.5289 43.7673 9.72045
RightHand  -2.01364 21.1702 -10.3778
LeftUpLeg  -17.0422 1.68 3.52618
LeftLeg  33.8519 -8.59121 -4.96731
LeftFoot  -4.85945 0.0356045 0.839067
LeftToes  -36.5234 3.33339e-006 -4.73431e-007
355
root  33.0189 32.1799 43.1575 -171.113 -59.052 172.646
RightUpLeg  -27.0541 9.41859 -3.52397
RightLeg  56.2092 -9.53229 -12.2461
RightFoot  -9.12666 0.178076 2.6086
RightToes  -17.499 -0.0679601 -0.156416
Spine  6.34664 -1.85774 -0.757258
Spine1  12.1985 -3.24508 -2.5269
HEad  9.65637 -7.04527 12.3062
LeftShoulder1  0 -2.42657e-020 -4.95415e-022
LeftArm  -11.4784 12.9665 -74.8696
LeftForeArm  58.3616 -40.8465 -8.72665
LeftHand  1.08297 -14.5398 -8.84818
RightShoulder  0 2.42657e-020 1.07489e-018
RightArm  -20.0431 -7.44433 86.6374
RightForeArm  43.6061 43.7312 9.70947
RightHand  -1.98208 21.0629 -10.2651
LeftUpLeg  -16.6088 3.22192 3.51827
LeftLeg  34.3234 -7.42027 -4.37914
LeftFoot  -6.23137 0.0505539 0.928713
LeftToes  -34.0322 3.33339e-006 -4.73431e-007
356
root  32.9053 32.3799 43.7119 -172.086 -56.1574 173.899
RightUpLeg  -27.1011 5.02269 -2.61186
RightLeg  54.0724 -11.5899 -13.6897
RightFoot  -8.9454 0.201513 2.95351
RightToes  -13.1953 -0.0468595 -0.119989
Spine  6.13562 -1.94294 -0.978058
Spine1  11.7843 -3.45596 -2.85422
HEad  11.05 -4.7475 12.242
LeftShoulder1  0 -2.42657e-020 -4.95415e-022
LeftArm  -7.82158 11.4933 -72.8892
LeftForeArm  61.591 -39.9565 -8.44334
LeftHand  0.916678 -14.983 -7.33567
RightShoulder  0 2.42657e-020 1.07489e-018
RightArm  -20.1245 -8.59484 87.0837
RightForeArm  42.7635 43.7591 9.72041
RightHand  -1.89624 20.9213 -9.87703
LeftUpLeg  -15.8314 4.58216 2.88098
LeftLeg  33.0559 -6.12271 -3.43979
LeftFoot  -6.13504 0.0396641 0.740127
LeftToes  -32.1167 3.33339e-006 -4.73431e-007
357
root  32.7666 32.6822 44.0754 -172.85 -53.8119 175.02
RightUpLeg  -25.9761 0.82317 -2.02216
RightLeg  49.7566 -11.0201 -11.2593
RightFoot  -8.55477 0.156092 2.4645
RightToes  -14.8489 -0.0546426 -0.134171
Spine  5.80208 -2.0661 -1.13184
Spine1  11.159 -3.74496 -3.0643
HEad  12.6384 -2.93886 11.9222
LeftShoulder1  0 -2.42657e-020 -4.95415e-022
LeftArm  -7.16756 11.0294 -71.8391
LeftForeArm  62.1062 -40.4218 -8.58457
LeftHand  0.725405 -14.8073 -5.95088
RightShoulder  0 2.42657e-020 1.07489e-018
RightArm  -19.6165 -10.2814 86.7741
RightForeArm  42.4724 44.144 9.85457
RightHand  -1.70634 21.3136 -8.68236
LeftUpLeg  -14.4539 6.23514 2.61977
LeftLeg  30.5615 -5.60483 -2.83794
LeftFoot  -5.26665 0.0258677 0.562418
LeftToes  -30.6201 3.33339e-006 -4.73431e-007
358
root  32.6677 32.9708 44.3244 -173.583 -51.9881 176.012
RightUpLeg  -24.3666 -2.65366 -1.88184
RightLeg  45.2645 -8.87556 -7.82286
RightFoot  -9.24004 0.129838 1.98431
RightToes  -19.6586 -0.0795639 -0.174072
Spine  5.47495 -2.16984 -1.14906
Spine1  10.5348 -4.01784 -2.97616
HEad  13.9501 -1.53683 11.6215
LeftShoulder1  0 -2.42657e-020 -4.95415e-022
LeftArm  -7.59573 11.0128 -71.1947
LeftForeArm  58.7678 -41.8228 -9.036
LeftHand  0.724942 -14.0371 -6.25632
RightShoulder  0 2.42657e-020 1.07489e-018
RightArm  -19.9038 -12.4693 86.1207
RightForeArm  43.0848 45.591 10.3732
RightHand  -1.53054 21.862 -7.54491
LeftUpLeg  -12.7792 6.84651 2.60984
LeftLeg  27.5277 -4.90582 -2.16809
LeftFoot  -3.9506 0.0120859 0.350416
LeftToes  -30.8256 3.33339e-006 -4.73431e-007
359
root  32.614 33.1762 44.4986 -174.297 -50.5232 177.051
RightUpLeg  -22.8873 -4.60057 -2.2185
RightLeg  41.9498 -8.51267 -6.6819
RightFoot  -9.74332 0.130451 1.90814
RightToes  -20.6399 -0.0850546 -0.181947
Spine  5.18134 -2.21402 -1.15824
Spine1  9.97531 -4.16271 -2.88236
HEad  14.5295 -0.413412 11.7883
LeftShoulder1  0 -2.42657e-020 -4.95415e-022
LeftArm  -8.48242 10.8381 -70.6702
LeftForeArm  55.0185 -43.8871 -9.73556
LeftHand  0.735079 -13.4768 -6.58872
RightShoulder  0 2.42657e-020 1.07489e-018
RightArm  -20.6203 -14.8261 85.4184
RightForeArm  43.2135 47.5004 11.1029
RightHand  -1.53932 22.0061 -7.53691
LeftUpLeg  -11.5713 8.72808 2.91028
LeftLeg  25.356 -5.24456 -2.08355
LeftFoot  -3.42826 0.00931448 0.311239
LeftToes  -29.2752 3.33339e-006 -4.73431e-007
360
root  32.6049 33.3098 44.649 -174.492 -49.5034 177.499
RightUpLeg  -21.61 -5.08297 -3.48673
RightLeg  39.6005 -9.96144 -7.15857
RightFoot  -9.57602 0.146437 2.12583
RightToes  -19.0221 -0.0782367 -0.168914
Spine  4.92927 -2.30316 -1.26986
Spine1  9.47823 -4.38849 -2.99303
HEad  14.5273 0.426145 12.2334
LeftShoulder1  0 -2.42657e-020 -4.95415e-022
LeftArm  -8.85713 10.4431 -69.9269
LeftForeArm  52.7971 -45.8399 -10.4412
LeftHand  0.582596 -12.7039 -5.60296
RightShoulder  0 2.42657e-020 1.07489e-018
RightArm  -21.8117 -16.8963 84.9353
RightForeArm  43.2815 49.1888 11.7959
RightHand  -1.64477 21.8963 -8.12003
LeftUpLeg  -10.669 9.0012 2.85287
LeftLeg  23.3626 -4.59053 -1.6425
LeftFoot  -2.76411 0.00487433 0.202026
LeftToes  -28.4749 3.33339e-006 -4.73431e-007
